# xmcd CD database file
#
# Track frame offsets:
#	150
#	15918
#	30182
#	46856
#	60082
#	74548
#	89195
#	103521
#	118084
#	130766
#
# Disc length: 1945 seconds
#
# Revision: 0
# Processed by: cddbd v1.4PL0 Copyright (c) Steve Scherf et al.
# Submitted via: CDex 1.50Beta7
#
DISCID=7607970a
DTITLE=Larry Pierce - Horny Hits
DYEAR=1900
DGENRE=Country
TTITLE0=Horny
TTITLE1=My Favorite Fantasy
TTITLE2=Can't Shoot Pool With a Rope
TTITLE3=She's Kind of Homely
TTITLE4=Big Woman
TTITLE5=I'd Sure Look Good On You
TTITLE6=Rock-N-Roll Prancer
TTITLE7=Dirt Poor Sumbitch
TTITLE8=If I Don't, Someone Will
TTITLE9=Soft and Silky
EXTD=
EXTT0=
EXTT1=
EXTT2=
EXTT3=
EXTT4=
EXTT5=
EXTT6=
EXTT7=
EXTT8=
EXTT9=
PLAYORDER=
